<mxfile host="app.diagrams.net" agent="Mozilla/5.0 (Windows NT 10.0; Win64; x64) AppleWebKit/537.36 (KHTML, like Gecko) Chrome/140.0.0.0 Safari/537.36" version="28.2.5">
  <diagram name="Page-1" id="L89RkYo9Oss51pmFFTGY">
    <mxGraphModel dx="1090" dy="639" grid="1" gridSize="10" guides="1" tooltips="1" connect="1" arrows="1" fold="1" page="1" pageScale="1" pageWidth="850" pageHeight="1100" math="0" shadow="0">
      <root>
        <mxCell id="0" />
        <mxCell id="1" parent="0" />
        <mxCell id="jag08KQkEfNFIQB9siFQ-1" value="" style="sketch=0;verticalLabelPosition=bottom;sketch=0;aspect=fixed;html=1;verticalAlign=top;strokeColor=none;fillColor=#000000;align=center;outlineConnect=0;pointerEvents=1;shape=mxgraph.citrix2.users;" vertex="1" parent="1">
          <mxGeometry x="10" y="130" width="90" height="47.58" as="geometry" />
        </mxCell>
        <mxCell id="jag08KQkEfNFIQB9siFQ-6" value="" style="edgeStyle=orthogonalEdgeStyle;rounded=0;orthogonalLoop=1;jettySize=auto;html=1;startArrow=classic;startFill=0;" edge="1" parent="1" source="jag08KQkEfNFIQB9siFQ-3">
          <mxGeometry relative="1" as="geometry">
            <mxPoint x="778.0000000000002" y="153.78999999999996" as="targetPoint" />
          </mxGeometry>
        </mxCell>
        <mxCell id="jag08KQkEfNFIQB9siFQ-8" value="" style="rounded=0;orthogonalLoop=1;jettySize=auto;html=1;" edge="1" parent="1" source="jag08KQkEfNFIQB9siFQ-5" target="jag08KQkEfNFIQB9siFQ-7">
          <mxGeometry relative="1" as="geometry" />
        </mxCell>
        <mxCell id="jag08KQkEfNFIQB9siFQ-16" value="" style="edgeStyle=orthogonalEdgeStyle;rounded=0;orthogonalLoop=1;jettySize=auto;html=1;" edge="1" parent="1" source="jag08KQkEfNFIQB9siFQ-7" target="jag08KQkEfNFIQB9siFQ-15">
          <mxGeometry relative="1" as="geometry" />
        </mxCell>
        <mxCell id="jag08KQkEfNFIQB9siFQ-7" value="" style="whiteSpace=wrap;html=1;verticalAlign=top;fillColor=#000000;strokeColor=none;sketch=0;pointerEvents=1;" vertex="1" parent="1">
          <mxGeometry x="680" y="283.78999999999996" width="120" height="60" as="geometry" />
        </mxCell>
        <mxCell id="jag08KQkEfNFIQB9siFQ-108" value="" style="edgeStyle=orthogonalEdgeStyle;rounded=0;orthogonalLoop=1;jettySize=auto;html=1;" edge="1" parent="1" source="jag08KQkEfNFIQB9siFQ-15" target="jag08KQkEfNFIQB9siFQ-107">
          <mxGeometry relative="1" as="geometry" />
        </mxCell>
        <mxCell id="jag08KQkEfNFIQB9siFQ-15" value="" style="whiteSpace=wrap;html=1;verticalAlign=top;fillColor=#000000;strokeColor=none;sketch=0;pointerEvents=1;" vertex="1" parent="1">
          <mxGeometry x="507" y="283.78999999999996" width="120" height="60" as="geometry" />
        </mxCell>
        <mxCell id="jag08KQkEfNFIQB9siFQ-20" value="" style="edgeStyle=orthogonalEdgeStyle;rounded=0;orthogonalLoop=1;jettySize=auto;html=1;" edge="1" parent="1" source="jag08KQkEfNFIQB9siFQ-17" target="jag08KQkEfNFIQB9siFQ-19">
          <mxGeometry relative="1" as="geometry" />
        </mxCell>
        <mxCell id="jag08KQkEfNFIQB9siFQ-17" value="" style="rhombus;whiteSpace=wrap;html=1;verticalAlign=top;fillColor=#000000;strokeColor=none;sketch=0;pointerEvents=1;" vertex="1" parent="1">
          <mxGeometry x="194" y="273.78999999999996" width="80" height="80" as="geometry" />
        </mxCell>
        <mxCell id="jag08KQkEfNFIQB9siFQ-22" value="" style="edgeStyle=orthogonalEdgeStyle;rounded=0;orthogonalLoop=1;jettySize=auto;html=1;" edge="1" parent="1" source="jag08KQkEfNFIQB9siFQ-19" target="jag08KQkEfNFIQB9siFQ-21">
          <mxGeometry relative="1" as="geometry" />
        </mxCell>
        <mxCell id="jag08KQkEfNFIQB9siFQ-19" value="" style="whiteSpace=wrap;html=1;verticalAlign=top;fillColor=#000000;strokeColor=none;sketch=0;pointerEvents=1;" vertex="1" parent="1">
          <mxGeometry x="174" y="443.78999999999996" width="120" height="60" as="geometry" />
        </mxCell>
        <mxCell id="jag08KQkEfNFIQB9siFQ-24" value="" style="edgeStyle=orthogonalEdgeStyle;rounded=0;orthogonalLoop=1;jettySize=auto;html=1;entryX=0;entryY=0.5;entryDx=0;entryDy=0;" edge="1" parent="1" source="jag08KQkEfNFIQB9siFQ-21" target="jag08KQkEfNFIQB9siFQ-23">
          <mxGeometry relative="1" as="geometry">
            <mxPoint x="475" y="469.78999999999996" as="sourcePoint" />
            <mxPoint x="685" y="400" as="targetPoint" />
            <Array as="points">
              <mxPoint x="475" y="474" />
              <mxPoint x="475" y="403" />
            </Array>
          </mxGeometry>
        </mxCell>
        <mxCell id="jag08KQkEfNFIQB9siFQ-26" value="" style="edgeStyle=orthogonalEdgeStyle;rounded=0;orthogonalLoop=1;jettySize=auto;html=1;" edge="1" parent="1" source="jag08KQkEfNFIQB9siFQ-21" target="jag08KQkEfNFIQB9siFQ-25">
          <mxGeometry relative="1" as="geometry" />
        </mxCell>
        <mxCell id="jag08KQkEfNFIQB9siFQ-21" value="" style="rhombus;whiteSpace=wrap;html=1;verticalAlign=top;fillColor=#000000;strokeColor=none;sketch=0;pointerEvents=1;" vertex="1" parent="1">
          <mxGeometry x="394" y="433.78999999999996" width="80" height="80" as="geometry" />
        </mxCell>
        <mxCell id="jag08KQkEfNFIQB9siFQ-23" value="" style="whiteSpace=wrap;html=1;verticalAlign=top;fillColor=#000000;strokeColor=none;sketch=0;pointerEvents=1;" vertex="1" parent="1">
          <mxGeometry x="680" y="390" width="120" height="30" as="geometry" />
        </mxCell>
        <mxCell id="jag08KQkEfNFIQB9siFQ-28" value="" style="edgeStyle=orthogonalEdgeStyle;rounded=0;orthogonalLoop=1;jettySize=auto;html=1;" edge="1" parent="1" source="jag08KQkEfNFIQB9siFQ-25" target="jag08KQkEfNFIQB9siFQ-27">
          <mxGeometry relative="1" as="geometry" />
        </mxCell>
        <mxCell id="jag08KQkEfNFIQB9siFQ-25" value="" style="whiteSpace=wrap;html=1;verticalAlign=top;fillColor=#000000;strokeColor=none;sketch=0;pointerEvents=1;" vertex="1" parent="1">
          <mxGeometry x="374" y="603.79" width="120" height="60" as="geometry" />
        </mxCell>
        <mxCell id="jag08KQkEfNFIQB9siFQ-37" value="" style="edgeStyle=orthogonalEdgeStyle;rounded=0;orthogonalLoop=1;jettySize=auto;html=1;" edge="1" parent="1" source="jag08KQkEfNFIQB9siFQ-27" target="jag08KQkEfNFIQB9siFQ-36">
          <mxGeometry relative="1" as="geometry" />
        </mxCell>
        <mxCell id="jag08KQkEfNFIQB9siFQ-27" value="" style="whiteSpace=wrap;html=1;verticalAlign=top;fillColor=#000000;strokeColor=none;sketch=0;pointerEvents=1;" vertex="1" parent="1">
          <mxGeometry x="157" y="603.79" width="163" height="60" as="geometry" />
        </mxCell>
        <mxCell id="jag08KQkEfNFIQB9siFQ-39" value="" style="edgeStyle=orthogonalEdgeStyle;rounded=0;orthogonalLoop=1;jettySize=auto;html=1;" edge="1" parent="1" source="jag08KQkEfNFIQB9siFQ-36" target="jag08KQkEfNFIQB9siFQ-38">
          <mxGeometry relative="1" as="geometry" />
        </mxCell>
        <mxCell id="jag08KQkEfNFIQB9siFQ-36" value="" style="shape=parallelogram;perimeter=parallelogramPerimeter;whiteSpace=wrap;html=1;fixedSize=1;verticalAlign=top;fillColor=#000000;strokeColor=none;sketch=0;pointerEvents=1;" vertex="1" parent="1">
          <mxGeometry x="178" y="743.79" width="120" height="60" as="geometry" />
        </mxCell>
        <mxCell id="jag08KQkEfNFIQB9siFQ-41" value="" style="edgeStyle=orthogonalEdgeStyle;rounded=0;orthogonalLoop=1;jettySize=auto;html=1;" edge="1" parent="1" source="jag08KQkEfNFIQB9siFQ-38" target="jag08KQkEfNFIQB9siFQ-40">
          <mxGeometry relative="1" as="geometry" />
        </mxCell>
        <mxCell id="jag08KQkEfNFIQB9siFQ-38" value="" style="whiteSpace=wrap;html=1;verticalAlign=top;fillColor=#000000;strokeColor=none;sketch=0;pointerEvents=1;" vertex="1" parent="1">
          <mxGeometry x="374" y="743.79" width="120" height="60" as="geometry" />
        </mxCell>
        <mxCell id="jag08KQkEfNFIQB9siFQ-43" value="" style="edgeStyle=orthogonalEdgeStyle;rounded=0;orthogonalLoop=1;jettySize=auto;html=1;" edge="1" parent="1" source="jag08KQkEfNFIQB9siFQ-40" target="jag08KQkEfNFIQB9siFQ-42">
          <mxGeometry relative="1" as="geometry" />
        </mxCell>
        <mxCell id="jag08KQkEfNFIQB9siFQ-40" value="" style="shape=parallelogram;perimeter=parallelogramPerimeter;whiteSpace=wrap;html=1;fixedSize=1;verticalAlign=top;fillColor=#000000;strokeColor=none;sketch=0;pointerEvents=1;" vertex="1" parent="1">
          <mxGeometry x="574" y="743.79" width="120" height="60" as="geometry" />
        </mxCell>
        <mxCell id="jag08KQkEfNFIQB9siFQ-45" value="" style="edgeStyle=orthogonalEdgeStyle;rounded=0;orthogonalLoop=1;jettySize=auto;html=1;" edge="1" parent="1" source="jag08KQkEfNFIQB9siFQ-42" target="jag08KQkEfNFIQB9siFQ-44">
          <mxGeometry relative="1" as="geometry" />
        </mxCell>
        <mxCell id="jag08KQkEfNFIQB9siFQ-47" value="" style="edgeStyle=orthogonalEdgeStyle;rounded=0;orthogonalLoop=1;jettySize=auto;html=1;" edge="1" parent="1" source="jag08KQkEfNFIQB9siFQ-42" target="jag08KQkEfNFIQB9siFQ-46">
          <mxGeometry relative="1" as="geometry" />
        </mxCell>
        <mxCell id="jag08KQkEfNFIQB9siFQ-42" value="" style="rounded=1;whiteSpace=wrap;html=1;verticalAlign=top;fillColor=#000000;strokeColor=none;sketch=0;pointerEvents=1;" vertex="1" parent="1">
          <mxGeometry x="574" y="883.79" width="120" height="60" as="geometry" />
        </mxCell>
        <mxCell id="jag08KQkEfNFIQB9siFQ-44" value="" style="rounded=1;whiteSpace=wrap;html=1;verticalAlign=top;fillColor=#000000;strokeColor=none;sketch=0;pointerEvents=1;" vertex="1" parent="1">
          <mxGeometry x="374" y="883.79" width="120" height="60" as="geometry" />
        </mxCell>
        <mxCell id="jag08KQkEfNFIQB9siFQ-46" value="" style="shape=document;whiteSpace=wrap;html=1;boundedLbl=1;verticalAlign=top;fillColor=#000000;strokeColor=none;rounded=1;sketch=0;pointerEvents=1;" vertex="1" parent="1">
          <mxGeometry x="540" y="1013.79" width="190" height="80" as="geometry" />
        </mxCell>
        <mxCell id="jag08KQkEfNFIQB9siFQ-48" value="" style="shape=internalStorage;whiteSpace=wrap;html=1;backgroundOutline=1;align=center;" vertex="1" parent="1">
          <mxGeometry x="200" y="100" width="90" height="110" as="geometry" />
        </mxCell>
        <mxCell id="jag08KQkEfNFIQB9siFQ-49" value="" style="endArrow=classic;html=1;rounded=0;entryX=0;entryY=0.5;entryDx=0;entryDy=0;" edge="1" parent="1" source="jag08KQkEfNFIQB9siFQ-1" target="jag08KQkEfNFIQB9siFQ-48">
          <mxGeometry width="50" height="50" relative="1" as="geometry">
            <mxPoint x="390" y="210" as="sourcePoint" />
            <mxPoint x="440" y="160" as="targetPoint" />
          </mxGeometry>
        </mxCell>
        <mxCell id="jag08KQkEfNFIQB9siFQ-50" value="" style="endArrow=classic;html=1;rounded=0;" edge="1" parent="1" source="jag08KQkEfNFIQB9siFQ-48" target="jag08KQkEfNFIQB9siFQ-3">
          <mxGeometry width="50" height="50" relative="1" as="geometry">
            <mxPoint x="390" y="210" as="sourcePoint" />
            <mxPoint x="370" y="154" as="targetPoint" />
          </mxGeometry>
        </mxCell>
        <mxCell id="jag08KQkEfNFIQB9siFQ-52" value="" style="rounded=0;whiteSpace=wrap;html=1;fillColor=light-dark(#F5F5F5,#FFFFFF);fontColor=#333333;strokeColor=#666666;" vertex="1" parent="1">
          <mxGeometry x="680" y="458.79" width="120" height="30" as="geometry" />
        </mxCell>
        <mxCell id="jag08KQkEfNFIQB9siFQ-55" value="" style="endArrow=classic;html=1;rounded=0;exitX=1;exitY=0.5;exitDx=0;exitDy=0;" edge="1" parent="1" source="jag08KQkEfNFIQB9siFQ-21" target="jag08KQkEfNFIQB9siFQ-52">
          <mxGeometry width="50" height="50" relative="1" as="geometry">
            <mxPoint x="390" y="490" as="sourcePoint" />
            <mxPoint x="440" y="440" as="targetPoint" />
            <Array as="points" />
          </mxGeometry>
        </mxCell>
        <mxCell id="jag08KQkEfNFIQB9siFQ-56" value="" style="rounded=0;whiteSpace=wrap;html=1;fillColor=light-dark(#FFFFFF,#FFFFFF);" vertex="1" parent="1">
          <mxGeometry x="680" y="525" width="120" height="30" as="geometry" />
        </mxCell>
        <mxCell id="jag08KQkEfNFIQB9siFQ-57" value="" style="endArrow=classic;html=1;rounded=0;exitX=1;exitY=0.5;exitDx=0;exitDy=0;entryX=0;entryY=0.5;entryDx=0;entryDy=0;curved=0;" edge="1" parent="1" source="jag08KQkEfNFIQB9siFQ-21" target="jag08KQkEfNFIQB9siFQ-56">
          <mxGeometry width="50" height="50" relative="1" as="geometry">
            <mxPoint x="390" y="490" as="sourcePoint" />
            <mxPoint x="440" y="440" as="targetPoint" />
            <Array as="points">
              <mxPoint x="474" y="540" />
            </Array>
          </mxGeometry>
        </mxCell>
        <mxCell id="jag08KQkEfNFIQB9siFQ-61" value="" style="swimlane;startSize=0;dashed=1;" vertex="1" parent="1">
          <mxGeometry x="130" y="41" width="710" height="200" as="geometry">
            <mxRectangle x="361" y="41" width="50" height="40" as="alternateBounds" />
          </mxGeometry>
        </mxCell>
        <mxCell id="jag08KQkEfNFIQB9siFQ-62" value="&lt;h2&gt;&lt;font style=&quot;font-size: 20px;&quot;&gt;Commercial Team&lt;/font&gt;&lt;/h2&gt;" style="text;html=1;align=center;verticalAlign=middle;whiteSpace=wrap;rounded=0;" vertex="1" parent="jag08KQkEfNFIQB9siFQ-61">
          <mxGeometry x="510" y="11" width="198" height="30" as="geometry" />
        </mxCell>
        <mxCell id="jag08KQkEfNFIQB9siFQ-5" value="&lt;h2&gt;&lt;br&gt;&lt;/h2&gt;" style="rhombus;whiteSpace=wrap;html=1;verticalAlign=top;fillColor=#000000;strokeColor=none;sketch=0;pointerEvents=1;" vertex="1" parent="jag08KQkEfNFIQB9siFQ-61">
          <mxGeometry x="569" y="72.78999999999999" width="80" height="80" as="geometry" />
        </mxCell>
        <mxCell id="jag08KQkEfNFIQB9siFQ-63" value="&lt;font style=&quot;font-size: 14px;&quot;&gt;&amp;nbsp;Verify&lt;/font&gt;" style="text;html=1;align=center;verticalAlign=middle;whiteSpace=wrap;rounded=0;fontColor=light-dark(#000000,#000000);" vertex="1" parent="jag08KQkEfNFIQB9siFQ-61">
          <mxGeometry x="579" y="97.78999999999999" width="60" height="30" as="geometry" />
        </mxCell>
        <mxCell id="jag08KQkEfNFIQB9siFQ-3" value="&lt;div&gt;&lt;font style=&quot;color: light-dark(rgb(0, 0, 0), rgb(0, 0, 0)); font-size: 14px;&quot;&gt;&lt;br&gt;&lt;/font&gt;&lt;/div&gt;&lt;font style=&quot;color: light-dark(rgb(0, 0, 0), rgb(0, 0, 0)); font-size: 14px;&quot;&gt;ARF Formation&lt;/font&gt;" style="whiteSpace=wrap;html=1;verticalAlign=top;fillColor=#000000;strokeColor=none;sketch=0;pointerEvents=1;" vertex="1" parent="jag08KQkEfNFIQB9siFQ-61">
          <mxGeometry x="272" y="82.79" width="178" height="60" as="geometry" />
        </mxCell>
        <mxCell id="jag08KQkEfNFIQB9siFQ-114" value="Form&lt;div&gt;Filing&lt;/div&gt;&lt;div&gt;by&amp;nbsp;&lt;/div&gt;&lt;div&gt;Vendor&lt;/div&gt;" style="text;html=1;align=center;verticalAlign=middle;whiteSpace=wrap;rounded=0;" vertex="1" parent="jag08KQkEfNFIQB9siFQ-61">
          <mxGeometry x="95" y="82.78999999999999" width="60" height="77.79" as="geometry" />
        </mxCell>
        <mxCell id="jag08KQkEfNFIQB9siFQ-66" value="" style="swimlane;startSize=0;dashed=1;" vertex="1" parent="1">
          <mxGeometry x="131" y="258.79" width="710" height="861.21" as="geometry">
            <mxRectangle x="130" y="258.79" width="50" height="40" as="alternateBounds" />
          </mxGeometry>
        </mxCell>
        <mxCell id="jag08KQkEfNFIQB9siFQ-67" value="&lt;h1&gt;&lt;font style=&quot;font-size: 36px;&quot;&gt;Legal Team&lt;/font&gt;&lt;/h1&gt;" style="text;html=1;align=center;verticalAlign=middle;whiteSpace=wrap;rounded=0;" vertex="1" parent="jag08KQkEfNFIQB9siFQ-66">
          <mxGeometry x="459" y="363.21" width="216" height="30" as="geometry" />
        </mxCell>
        <mxCell id="jag08KQkEfNFIQB9siFQ-69" value="&lt;font style=&quot;color: light-dark(rgb(0, 0, 0), rgb(0, 0, 0));&quot;&gt;Vendor Verify&lt;/font&gt;" style="text;html=1;align=center;verticalAlign=middle;whiteSpace=wrap;rounded=0;" vertex="1" parent="jag08KQkEfNFIQB9siFQ-66">
          <mxGeometry x="74" y="41.60999999999996" width="60" height="30" as="geometry" />
        </mxCell>
        <mxCell id="jag08KQkEfNFIQB9siFQ-77" value="&lt;h3&gt;&lt;font style=&quot;font-size: 14px; color: light-dark(rgb(0, 0, 0), rgb(0, 0, 0));&quot;&gt;&lt;b&gt;Draft 2&lt;/b&gt;&lt;/font&gt;&lt;/h3&gt;" style="text;html=1;align=center;verticalAlign=middle;whiteSpace=wrap;rounded=0;" vertex="1" parent="jag08KQkEfNFIQB9siFQ-66">
          <mxGeometry x="72" y="201.20999999999998" width="60" height="30" as="geometry" />
        </mxCell>
        <mxCell id="jag08KQkEfNFIQB9siFQ-80" value="&lt;font style=&quot;font-size: 14px;&quot;&gt;&amp;nbsp;Verify&lt;/font&gt;" style="text;html=1;align=center;verticalAlign=middle;whiteSpace=wrap;rounded=0;fontColor=light-dark(#000000,#000000);" vertex="1" parent="jag08KQkEfNFIQB9siFQ-66">
          <mxGeometry x="271" y="201.20999999999998" width="60" height="30" as="geometry" />
        </mxCell>
        <mxCell id="jag08KQkEfNFIQB9siFQ-81" value="&lt;span style=&quot;font-size: 14px;&quot;&gt;Legal Head&lt;/span&gt;" style="text;html=1;align=center;verticalAlign=middle;whiteSpace=wrap;rounded=0;fontColor=light-dark(#000000,#000000);" vertex="1" parent="jag08KQkEfNFIQB9siFQ-66">
          <mxGeometry x="566" y="131.21" width="90" height="30" as="geometry" />
        </mxCell>
        <mxCell id="jag08KQkEfNFIQB9siFQ-82" value="&lt;span style=&quot;font-size: 14px;&quot;&gt;User Head&lt;/span&gt;" style="text;html=1;align=center;verticalAlign=middle;whiteSpace=wrap;rounded=0;fontColor=light-dark(#000000,#000000);" vertex="1" parent="jag08KQkEfNFIQB9siFQ-66">
          <mxGeometry x="566" y="201.20999999999998" width="90" height="30" as="geometry" />
        </mxCell>
        <mxCell id="jag08KQkEfNFIQB9siFQ-83" value="&lt;span style=&quot;font-size: 14px;&quot;&gt;CFO&lt;/span&gt;" style="text;html=1;align=center;verticalAlign=middle;whiteSpace=wrap;rounded=0;fontColor=light-dark(#000000,#000000);" vertex="1" parent="jag08KQkEfNFIQB9siFQ-66">
          <mxGeometry x="565" y="267.21" width="90" height="30" as="geometry" />
        </mxCell>
        <mxCell id="jag08KQkEfNFIQB9siFQ-94" value="&lt;h3&gt;&lt;font style=&quot;&quot;&gt;&lt;font style=&quot;color: light-dark(rgb(0, 0, 0), rgb(0, 0, 0));&quot;&gt;&lt;font style=&quot;&quot;&gt;&lt;font style=&quot;font-size: 15px;&quot;&gt;Draft 4&lt;/font&gt;&lt;br&gt;&lt;/font&gt;&lt;font style=&quot;font-size: 12px; font-weight: normal;&quot;&gt;(With Stamp Sheet&lt;/font&gt;&lt;/font&gt;&lt;span style=&quot;font-size: 12px; font-weight: normal; color: light-dark(rgb(0, 0, 0), rgb(0, 0, 0)); background-color: transparent;&quot;&gt;&lt;font style=&quot;&quot;&gt;)&lt;/font&gt;&lt;/span&gt;&lt;/font&gt;&lt;/h3&gt;" style="text;html=1;align=center;verticalAlign=middle;whiteSpace=wrap;rounded=0;" vertex="1" parent="jag08KQkEfNFIQB9siFQ-66">
          <mxGeometry x="243" y="498.21" width="124" height="30" as="geometry" />
        </mxCell>
        <mxCell id="jag08KQkEfNFIQB9siFQ-105" value="&lt;h3&gt;&lt;font style=&quot;font-size: 14px; color: light-dark(rgb(0, 0, 0), rgb(0, 0, 0));&quot;&gt;&lt;b&gt;Final Draft (5)&lt;/b&gt;&lt;/font&gt;&lt;/h3&gt;" style="text;html=1;align=center;verticalAlign=middle;whiteSpace=wrap;rounded=0;" vertex="1" parent="jag08KQkEfNFIQB9siFQ-66">
          <mxGeometry x="450" y="641.21" width="110" height="30" as="geometry" />
        </mxCell>
        <mxCell id="jag08KQkEfNFIQB9siFQ-65" value="&lt;font style=&quot;color: light-dark(rgb(0, 0, 0), rgb(0, 0, 0)); font-size: 14px;&quot;&gt;Draft Formation&lt;/font&gt;" style="text;html=1;align=center;verticalAlign=middle;whiteSpace=wrap;rounded=0;" vertex="1" parent="jag08KQkEfNFIQB9siFQ-66">
          <mxGeometry x="561" y="40.60999999999998" width="100" height="30" as="geometry" />
        </mxCell>
        <mxCell id="jag08KQkEfNFIQB9siFQ-107" value="" style="whiteSpace=wrap;html=1;verticalAlign=top;fillColor=#000000;strokeColor=none;sketch=0;pointerEvents=1;" vertex="1" parent="jag08KQkEfNFIQB9siFQ-66">
          <mxGeometry x="219" y="25" width="90" height="60" as="geometry" />
        </mxCell>
        <mxCell id="jag08KQkEfNFIQB9siFQ-110" value="&lt;font style=&quot;color: light-dark(rgb(0, 0, 0), rgb(0, 0, 0)); font-size: 13px;&quot;&gt;Stamping, Signatories, Addresses &amp;amp; Other Details&lt;/font&gt;" style="text;html=1;align=center;verticalAlign=middle;whiteSpace=wrap;rounded=0;" vertex="1" parent="jag08KQkEfNFIQB9siFQ-66">
          <mxGeometry x="38" y="361" width="148" height="31.21" as="geometry" />
        </mxCell>
        <mxCell id="jag08KQkEfNFIQB9siFQ-109" value="&lt;h3&gt;&lt;font style=&quot;font-size: 14px; color: light-dark(rgb(0, 0, 0), rgb(0, 0, 0));&quot;&gt;&lt;b&gt;Draft 1&lt;/b&gt;&lt;/font&gt;&lt;/h3&gt;" style="text;html=1;align=center;verticalAlign=middle;whiteSpace=wrap;rounded=0;" vertex="1" parent="jag08KQkEfNFIQB9siFQ-66">
          <mxGeometry x="235" y="39.61" width="60" height="30" as="geometry" />
        </mxCell>
        <mxCell id="jag08KQkEfNFIQB9siFQ-64" value="&lt;font style=&quot;font-size: 15px;&quot;&gt;Edit&lt;/font&gt;" style="text;html=1;align=center;verticalAlign=middle;whiteSpace=wrap;rounded=0;" vertex="1" parent="jag08KQkEfNFIQB9siFQ-66">
          <mxGeometry x="149" y="24.99999999999997" width="60" height="30" as="geometry" />
        </mxCell>
        <mxCell id="jag08KQkEfNFIQB9siFQ-116" value="&lt;font style=&quot;font-size: 14px;&quot;&gt;Stamping API&lt;/font&gt;" style="text;html=1;align=center;verticalAlign=middle;whiteSpace=wrap;rounded=0;fontColor=light-dark(#000000,#000000);" vertex="1" parent="jag08KQkEfNFIQB9siFQ-66">
          <mxGeometry x="75" y="499.21" width="60" height="30" as="geometry" />
        </mxCell>
        <mxCell id="jag08KQkEfNFIQB9siFQ-120" value="&lt;span style=&quot;font-size: 14px;&quot;&gt;Email Final Draft to Vendor&lt;/span&gt;" style="text;html=1;align=center;verticalAlign=middle;whiteSpace=wrap;rounded=0;fontColor=light-dark(#000000,#000000);" vertex="1" parent="jag08KQkEfNFIQB9siFQ-66">
          <mxGeometry x="251" y="639.21" width="100" height="30" as="geometry" />
        </mxCell>
        <mxCell id="jag08KQkEfNFIQB9siFQ-122" value="&lt;span style=&quot;font-size: 14px;&quot;&gt;Save in DB for later retreivals &amp;amp; for Expiration Alerts&lt;/span&gt;" style="text;html=1;align=center;verticalAlign=middle;whiteSpace=wrap;rounded=0;fontColor=light-dark(#000000,#000000);" vertex="1" parent="jag08KQkEfNFIQB9siFQ-66">
          <mxGeometry x="412.25" y="768.21" width="185.5" height="41.21" as="geometry" />
        </mxCell>
        <mxCell id="jag08KQkEfNFIQB9siFQ-70" value="" style="endArrow=classic;startArrow=classic;html=1;rounded=0;entryX=0;entryY=0.5;entryDx=0;entryDy=0;edgeStyle=orthogonalEdgeStyle;" edge="1" parent="1" source="jag08KQkEfNFIQB9siFQ-1" target="jag08KQkEfNFIQB9siFQ-17">
          <mxGeometry width="50" height="50" relative="1" as="geometry">
            <mxPoint x="530" y="520" as="sourcePoint" />
            <mxPoint x="580" y="470" as="targetPoint" />
            <Array as="points">
              <mxPoint x="60" y="314" />
            </Array>
          </mxGeometry>
        </mxCell>
        <mxCell id="jag08KQkEfNFIQB9siFQ-71" value="Vendor" style="text;html=1;align=center;verticalAlign=middle;whiteSpace=wrap;rounded=0;" vertex="1" parent="1">
          <mxGeometry x="25" y="93.78999999999999" width="60" height="30" as="geometry" />
        </mxCell>
        <mxCell id="jag08KQkEfNFIQB9siFQ-84" value="&lt;h3&gt;&lt;font style=&quot;font-size: 14px; color: light-dark(rgb(0, 0, 0), rgb(0, 0, 0));&quot;&gt;&lt;b&gt;Draft 3&lt;/b&gt;&lt;/font&gt;&lt;/h3&gt;" style="text;html=1;align=center;verticalAlign=middle;whiteSpace=wrap;rounded=0;" vertex="1" parent="1">
          <mxGeometry x="404" y="620" width="60" height="30" as="geometry" />
        </mxCell>
        <mxCell id="jag08KQkEfNFIQB9siFQ-68" value="&lt;font style=&quot;color: light-dark(rgb(0, 0, 0), rgb(0, 0, 0));&quot;&gt;Additional Information for Draft from BARC&lt;/font&gt;" style="text;html=1;align=center;verticalAlign=middle;whiteSpace=wrap;rounded=0;" vertex="1" parent="1">
          <mxGeometry x="517" y="288.39000000000004" width="100" height="48.79" as="geometry" />
        </mxCell>
        <mxCell id="jag08KQkEfNFIQB9siFQ-115" value="" style="endArrow=classic;startArrow=classic;html=1;rounded=0;entryX=0;entryY=0.5;entryDx=0;entryDy=0;exitX=0.989;exitY=0.498;exitDx=0;exitDy=0;exitPerimeter=0;" edge="1" parent="1" source="jag08KQkEfNFIQB9siFQ-17" target="jag08KQkEfNFIQB9siFQ-107">
          <mxGeometry width="50" height="50" relative="1" as="geometry">
            <mxPoint x="280" y="315" as="sourcePoint" />
            <mxPoint x="361" y="343.5102272727272" as="targetPoint" />
          </mxGeometry>
        </mxCell>
        <mxCell id="jag08KQkEfNFIQB9siFQ-118" value="&lt;font style=&quot;font-size: 14px;&quot;&gt;eSigning API&lt;/font&gt;" style="text;html=1;align=center;verticalAlign=middle;whiteSpace=wrap;rounded=0;fontColor=light-dark(#000000,#000000);" vertex="1" parent="1">
          <mxGeometry x="604" y="756.79" width="60" height="30" as="geometry" />
        </mxCell>
        <mxCell id="jag08KQkEfNFIQB9siFQ-123" value="" style="endArrow=classic;html=1;rounded=0;exitX=0;exitY=0.5;exitDx=0;exitDy=0;dashed=1;dashPattern=8 8;" edge="1" parent="1" source="jag08KQkEfNFIQB9siFQ-44">
          <mxGeometry width="50" height="50" relative="1" as="geometry">
            <mxPoint x="420" y="980" as="sourcePoint" />
            <mxPoint x="60" y="914" as="targetPoint" />
          </mxGeometry>
        </mxCell>
      </root>
    </mxGraphModel>
  </diagram>
</mxfile>
